<svg width="33" height="38" xmlns="http://www.w3.org/2000/svg"><g fill="none" fill-rule="evenodd"><g fill-rule="nonzero"><path stroke="#6A86C1" stroke-width="4" fill="#FFF" d="M2 3v33h29V11.062l-8.498-7.88z"/><path d="M16 13c0 .265-.067.52-.187.707-.119.188-.281.293-.45.293H7.637C7.285 14 7 13.552 7 13s.285-1 .637-1h7.726c.169 0 .33.105.45.293.12.187.187.442.187.707zm0 5c0 .265-.067.52-.187.707-.119.188-.281.293-.45.293H7.637C7.285 19 7 18.552 7 18s.285-1 .637-1h7.726c.169 0 .33.105.45.293.12.187.187.442.187.707z" stroke="#393939" stroke-width="1.5" fill="#393939"/></g><path d="M14.177 21.367l2.708 2.617a81.79 81.79 0 0 1 3.051-2.537c.5-.381.973-.763 1.43-1.106a79.74 79.74 0 0 1 1.484-1.08A84.29 84.29 0 0 1 26.157 17L27 18.144a20.41 20.41 0 0 0-2.609 2.224 43.689 43.689 0 0 0-1.628 1.628 69.35 69.35 0 0 0-1.93 2.155c-1.145 1.34-2.7 3.242-4.196 5.382L11 23.93l3.177-2.563z" fill="#393939"/></g></svg>